<svg xmlns="http://www.w3.org/2000/svg" xmlns:xlink="http://www.w3.org/1999/xlink" viewBox="0 0 347.35 548.61"><defs><style>.a,.b,.c,.d,.e{stroke:#c7962c;stroke-linecap:round;stroke-linejoin:round;}.a{fill:url(#a);}.b{fill:url(#b);}.c{fill:url(#c);}.d{fill:url(#d);}.e{fill:url(#e);}</style><linearGradient id="a" x1="906.96" y1="1135.47" x2="1113.35" y2="1135.47" gradientUnits="userSpaceOnUse"><stop offset="0" stop-color="#ffe505"/><stop offset="1" stop-color="#e73e25"/></linearGradient><linearGradient id="b" x1="922.11" y1="1263.87" x2="1113.07" y2="1263.87" gradientUnits="userSpaceOnUse"><stop offset="0" stop-color="#ffe505"/><stop offset="1" stop-color="#fff"/></linearGradient><linearGradient id="c" x1="969.97" y1="1299.49" x2="1253.31" y2="1299.49" xlink:href="#a"/><linearGradient id="d" x1="989.12" y1="1452.56" x2="1247.89" y2="1452.56" xlink:href="#a"/><linearGradient id="e" x1="921.93" y1="1454.65" x2="1033.89" y2="1454.65" xlink:href="#b"/></defs><title>StellarFox</title><path class="a" d="M1016,989.65c4.56,70.4,38.93,119.59,95.76,148.43a2.81,2.81,0,0,1-1.46,5.31c-82.43-6.24-165.14,47-186.1,138.36a2.82,2.82,0,0,1-5.46.12c-33-117.91,4.76-220.38,92.62-294.2A2.82,2.82,0,0,1,1016,989.65Z" transform="translate(-906.46 -986.51)"/><path class="b" d="M1110.85,1143.61a2.42,2.42,0,0,1,.26,4.79c-41.5,8.15-73.24,28.53-99,56.38-45.5,48.82-52.15,125.34-29.45,176.44a2.42,2.42,0,0,1-4,2.65c-22.64-23.15-41.27-53.58-56.38-90.41a2.48,2.48,0,0,1-.15-1.34C937.35,1198.85,1019.44,1136.94,1110.85,1143.61Z" transform="translate(-906.46 -986.51)"/><path class="c" d="M1247.89,1406c-88.21-45.51-174.23-44.64-258.77-12.2-30-50.33-26.43-136,23-189C1135.8,1157,1283.59,1260.91,1247.89,1406Z" transform="translate(-906.46 -986.51)"/><path class="d" d="M1247.89,1406c-36.43,123.43-168.37,153.42-253.4,109.61,54.67-23.25,52-98.49-5.37-121.81C1073.66,1361.34,1159.68,1360.47,1247.89,1406Z" transform="translate(-906.46 -986.51)"/><path class="e" d="M988.09,1512.31c-24.5-13.27-46.16-33.21-64.08-61.89a13.69,13.69,0,0,1,3.15-18,369.4,369.4,0,0,1,55.94-35.51,13.8,13.8,0,0,1,12.75,0c48.49,25.07,50.95,90.12,5.45,115.38A13.75,13.75,0,0,1,988.09,1512.31Z" transform="translate(-906.46 -986.51)"/></svg>